<?xml version="1.0" encoding="utf-8" standalone="no"?>
<!DOCTYPE svg PUBLIC "-//W3C//DTD SVG 1.1//EN"
  "http://www.w3.org/Graphics/SVG/1.1/DTD/svg11.dtd">
<svg xmlns:xlink="http://www.w3.org/1999/xlink" width="360pt" height="216pt" viewBox="0 0 360 216" xmlns="http://www.w3.org/2000/svg" version="1.1">
 <metadata>
  <rdf:RDF xmlns:dc="http://purl.org/dc/elements/1.1/" xmlns:cc="http://creativecommons.org/ns#" xmlns:rdf="http://www.w3.org/1999/02/22-rdf-syntax-ns#">
   <cc:Work>
    <dc:type rdf:resource="http://purl.org/dc/dcmitype/StillImage"/>
    <dc:date>2026-09-10T10:08:19.346103</dc:date>
    <dc:format>image/svg+xml</dc:format>
    <dc:creator>
     <cc:Agent>
      <dc:title>Matplotlib v3.11.1, https://matplotlib.org/</dc:title>
     </cc:Agent>
    </dc:creator>
   </cc:Work>
  </rdf:RDF>
 </metadata>
 <defs>
  <style type="text/css">*{stroke-linejoin: round; stroke-linecap: butt}</style>
 </defs>
 <g id="figure_1">
  <g id="patch_1">
   <path d="M 0 216 
L 360 216 
L 360 0 
L 0 0 
z
" style="fill: #ffffff"/>
  </g>
  <g id="axes_1">
   <g id="patch_2">
    <path d="M 43.88 176.2 
L 349.2 176.2 
L 349.2 25.16 
L 43.88 25.16 
z
" style="fill: #ffffff"/>
   </g>
   <g id="line2d_1">
    <path d="M 43.88 176.2 
L 132.18616 176.097692 
L 140.843626 175.853107 
L 146.615271 175.465773 
L 150.655425 174.99635 
L 154.118409 174.397806 
L 157.004235 173.712573 
L 159.890049 172.810614 
L 162.775875 171.640527 
L 165.08453 170.47292 
L 167.393186 169.065192 
L 169.701854 167.384193 
L 172.01051 165.396327 
L 174.319166 163.068593 
L 176.627822 160.369989 
L 178.936478 157.273008 
L 181.245134 153.755383 
L 183.55379 149.801875 
L 185.862457 145.406116 
L 188.171113 140.572455 
L 191.056927 133.941164 
L 193.942753 126.715212 
L 197.405737 117.400443 
L 202.600219 102.635571 
L 208.37187 86.337858 
L 211.257684 78.776315 
L 213.56634 73.228061 
L 215.875008 68.254739 
L 217.606494 64.969393 
L 219.337992 62.112726 
L 221.069478 59.722505 
L 222.800976 57.830746 
L 223.955304 56.859471 
L 225.109632 56.127214 
L 226.26396 55.638469 
L 227.418288 55.396218 
L 228.572616 55.40198 
L 229.726955 55.655697 
L 230.881283 56.155807 
L 232.035611 56.899256 
L 233.189939 57.881478 
L 234.344267 59.096509 
L 236.075765 61.3391 
L 237.807251 64.058408 
L 239.538749 67.218408 
L 241.270235 70.777904 
L 243.578891 76.066478 
L 246.464717 83.384782 
L 249.927713 92.888637 
L 261.470992 125.347376 
L 264.356818 132.671745 
L 267.242644 139.416637 
L 270.12847 145.513039 
L 272.437126 149.89853 
L 274.745781 153.841823 
L 277.054437 157.349491 
L 279.363093 160.43696 
L 281.671749 163.126642 
L 283.980405 165.446135 
L 286.289061 167.426509 
L 288.597717 169.100784 
L 290.906373 170.502574 
L 293.215029 171.665 
L 296.100855 172.829609 
L 298.98668 173.727106 
L 301.872506 174.408763 
L 305.335502 175.004011 
L 309.375644 175.470688 
L 314.570126 175.8279 
L 321.496093 176.057807 
L 333.039397 176.175724 
L 349.2 176.198553 
L 349.2 176.198553 
" clip-path="url(#p5eee908ed7)" style="fill: none; stroke: #0000ff; stroke-linecap: square"/>
   </g>
   <g id="line2d_2">
    <path d="M 43.88 148.244625 
L 49.074482 144.756151 
L 54.268963 141.00605 
L 60.040603 136.542115 
L 65.812249 131.782795 
L 72.161059 126.237256 
L 79.087032 119.869505 
L 87.167334 112.120447 
L 102.173609 97.323388 
L 111.408239 88.377809 
L 118.334213 81.975992 
L 124.105858 76.951867 
L 129.30034 72.740569 
L 133.917652 69.290207 
L 137.957806 66.527398 
L 141.997954 64.02777 
L 146.038101 61.81236 
L 149.501097 60.154044 
L 152.964081 58.729027 
L 156.427065 57.546419 
L 159.890049 56.613864 
L 163.353045 55.937409 
L 166.816028 55.521485 
L 170.279012 55.368799 
L 173.741996 55.480361 
L 177.204992 55.855449 
L 180.667976 56.491586 
L 184.13096 57.384638 
L 187.593943 58.528771 
L 191.056927 59.916618 
L 194.519923 61.539276 
L 197.982907 63.386397 
L 202.023061 65.809516 
L 206.063203 68.501809 
L 210.680526 71.879566 
L 215.297838 75.543703 
L 220.49232 79.960773 
L 226.26396 85.168812 
L 233.189939 91.72827 
L 243.578891 101.920995 
L 258.585166 116.619863 
L 266.088304 123.655469 
L 272.437126 129.333218 
L 278.785923 134.703752 
L 284.557575 139.286454 
L 289.752057 143.148732 
L 294.946539 146.752235 
L 300.14102 150.091713 
L 305.335502 153.166163 
L 310.529984 155.978375 
L 315.724442 158.534419 
L 320.918923 160.843179 
L 326.113405 162.915763 
L 331.307887 164.765067 
L 337.079539 166.575254 
L 342.85119 168.147973 
L 349.2 169.629115 
L 349.2 169.629115 
" clip-path="url(#p5eee908ed7)" style="fill: none; stroke: #008000; stroke-linecap: square"/>
   </g>
   <g id="line2d_3">
    <path d="M 43.88 176.2 
L 107.945255 176.091198 
L 115.448393 175.855689 
L 120.642869 175.480481 
L 124.683022 174.966508 
L 128.146006 174.288232 
L 131.031832 173.491569 
L 133.340488 172.66031 
L 135.649144 171.618946 
L 137.957806 170.328912 
L 140.266462 168.748838 
L 142.575118 166.835553 
L 144.883773 164.545523 
L 147.192429 161.836637 
L 149.501097 158.670381 
L 151.809753 155.014383 
L 154.118409 150.845072 
L 156.427065 146.150568 
L 158.735721 140.933467 
L 161.044377 135.213398 
L 163.930203 127.417043 
L 167.393186 117.280473 
L 172.587668 101.154017 
L 177.78215 85.231024 
L 180.667976 77.110487 
L 182.976632 71.256177 
L 184.70813 67.340455 
L 186.439616 63.898167 
L 188.171113 60.982579 
L 189.902599 58.639821 
L 191.056927 57.41516 
L 192.211267 56.470836 
L 193.365595 55.813712 
L 194.519923 55.448563 
L 195.674251 55.37809 
L 196.828579 55.60279 
L 197.982907 56.121021 
L 199.137235 56.928994 
L 200.291563 58.020832 
L 201.445891 59.388628 
L 202.600219 61.022536 
L 204.331717 63.946457 
L 206.063203 67.396337 
L 207.794701 71.318771 
L 210.103356 77.180578 
L 212.989182 85.307972 
L 216.452166 95.822936 
L 225.109632 122.516874 
L 227.995458 130.687237 
L 230.881283 138.199254 
L 233.189939 143.665731 
L 235.498595 148.616926 
L 237.807251 153.042221 
L 240.115907 156.946763 
L 242.424563 160.348755 
L 244.733231 163.276653 
L 247.041887 165.766266 
L 249.350543 167.858249 
L 251.659199 169.595693 
L 253.967854 171.022145 
L 256.27651 172.180008 
L 258.585166 173.109325 
L 261.470992 174.005352 
L 264.356818 174.665241 
L 267.819814 175.220758 
L 271.859956 175.636184 
L 277.054437 175.93468 
L 284.557575 176.118164 
L 298.98668 176.193625 
L 349.2 176.2 
L 349.2 176.2 
" clip-path="url(#p5eee908ed7)" style="fill: none; stroke: #ff0000; stroke-linecap: square"/>
   </g>
   <g id="line2d_4">
    <path d="M 43.88 163.183635 
L 50.80598 161.112974 
L 57.731947 158.801169 
L 64.657921 156.236376 
L 71.006725 153.654922 
L 77.355535 150.847685 
L 83.704344 147.811835 
L 90.053154 144.547321 
L 96.979128 140.728828 
L 103.905101 136.650291 
L 111.408239 131.954375 
L 118.911377 126.993946 
L 126.991678 121.393429 
L 136.803478 114.304715 
L 150.078255 104.402848 
L 169.124684 90.203849 
L 177.78215 84.025824 
L 185.285288 78.9376 
L 191.634097 74.884389 
L 197.405737 71.440466 
L 203.177389 68.259392 
L 208.37187 65.646546 
L 213.56634 63.292236 
L 218.183664 61.431993 
L 222.800976 59.803141 
L 227.418288 58.416324 
L 232.035611 57.280689 
L 236.075765 56.499054 
L 240.115907 55.919526 
L 244.156061 55.545086 
L 248.196203 55.377701 
L 252.236368 55.418192 
L 256.27651 55.666356 
L 260.316676 56.120941 
L 264.356818 56.779571 
L 268.39696 57.638895 
L 273.014295 58.861042 
L 277.631607 60.331433 
L 282.248919 62.040394 
L 286.866231 63.976778 
L 292.060713 66.411479 
L 297.255194 69.098615 
L 303.026846 72.354447 
L 308.798474 75.86445 
L 315.147296 79.979873 
L 322.650433 85.127018 
L 331.307887 91.353196 
L 343.428336 100.375119 
L 349.2 104.717928 
L 349.2 104.717928 
" clip-path="url(#p5eee908ed7)" style="fill: none; stroke: #00bfbf; stroke-linecap: square"/>
   </g>
   <g id="line2d_5">
    <path d="M 43.88 132.253146 
L 52.537466 127.139008 
L 61.772101 121.410563 
L 72.161059 114.695446 
L 86.013 105.456573 
L 109.099583 90.0375 
L 118.911377 83.776536 
L 126.991678 78.877267 
L 133.917652 74.917937 
L 140.266462 71.521058 
L 146.615271 68.378537 
L 152.386911 65.767168 
L 158.158563 63.410848 
L 163.353045 61.523856 
L 168.547514 59.871143 
L 173.741996 58.463663 
L 178.35932 57.426115 
L 182.976632 56.59534 
L 187.593943 55.975768 
L 192.211267 55.570762 
L 196.828579 55.382491 
L 201.445891 55.411969 
L 206.063203 55.659053 
L 210.680526 56.122411 
L 215.297838 56.799513 
L 219.91515 57.686746 
L 224.532474 58.77937 
L 229.726955 60.246757 
L 234.921425 61.9569 
L 240.115907 63.898455 
L 245.887547 66.311657 
L 251.659199 68.97561 
L 258.007996 72.170562 
L 264.356818 75.613923 
L 271.282786 79.616791 
L 279.363093 84.557162 
L 288.597717 90.476378 
L 301.295336 98.911945 
L 328.422061 117.022607 
L 338.811025 123.648249 
L 348.045672 129.273386 
L 349.2 129.956258 
L 349.2 129.956258 
" clip-path="url(#p5eee908ed7)" style="fill: none; stroke: #bf00bf; stroke-linecap: square"/>
   </g>
   <g id="line2d_6">
    <path d="M 43.88 176.2 
L 126.991678 176.096181 
L 131.608996 175.844232 
L 134.494816 175.476473 
L 136.803478 174.964977 
L 138.53497 174.39102 
L 140.266462 173.593919 
L 141.997954 172.507362 
L 143.729445 171.05387 
L 144.883773 169.83829 
L 146.038101 168.39335 
L 147.192429 166.690592 
L 148.346769 164.701514 
L 149.501097 162.398542 
L 151.232583 158.300266 
L 152.964081 153.366948 
L 154.695579 147.553186 
L 156.427065 140.850527 
L 158.158563 133.297248 
L 160.467219 122.073089 
L 163.353045 106.767782 
L 167.970356 82.234606 
L 169.701854 74.097482 
L 171.43334 67.081178 
L 172.587668 63.184218 
L 173.741996 60.007977 
L 174.896324 57.62004 
L 175.473494 56.738497 
L 176.050652 56.072046 
L 176.627822 55.62436 
L 177.204992 55.397882 
L 177.78215 55.393877 
L 178.35932 55.612362 
L 178.936478 56.052118 
L 179.513648 56.710761 
L 180.090806 57.584627 
L 181.245134 59.957836 
L 182.399462 63.120436 
L 183.55379 67.005116 
L 184.70813 71.531004 
L 186.439616 79.31917 
L 188.748271 91.035934 
L 196.251409 130.506495 
L 198.560065 140.764796 
L 200.291563 147.478037 
L 202.023061 153.302496 
L 203.754547 158.246135 
L 205.486045 162.354079 
L 207.217543 165.697788 
L 208.949028 168.365063 
L 210.680526 170.451106 
L 212.412012 172.051138 
L 214.14351 173.255119 
L 215.875008 174.144103 
L 217.606494 174.788337 
L 219.91515 175.366648 
L 222.800976 175.786298 
L 226.26396 176.032003 
L 232.035611 176.167719 
L 247.619057 176.19985 
L 349.2 176.2 
L 349.2 176.2 
" clip-path="url(#p5eee908ed7)" style="fill: none; stroke: #bfbf00; stroke-linecap: square"/>
   </g>
   <g id="line2d_7">
    <path d="M 43.88 176.2 
L 107.368091 176.094751 
L 114.871229 175.866672 
L 120.065705 175.502897 
L 124.105858 175.00407 
L 127.568842 174.345131 
L 130.454668 173.570457 
L 132.763324 172.761466 
L 135.07198 171.747184 
L 137.380642 170.489619 
L 139.689298 168.947906 
L 141.997954 167.079251 
L 144.306615 164.840319 
L 146.615271 162.188964 
L 148.923927 159.086347 
L 151.232583 155.499362 
L 153.541239 151.403334 
L 155.849907 146.784812 
L 158.158563 141.644423 
L 160.467219 135.999336 
L 163.353045 128.289947 
L 166.816028 118.239637 
L 171.43334 103.990633 
L 177.204992 86.225483 
L 180.090806 78.033161 
L 182.399462 72.092822 
L 184.13096 68.096263 
L 185.862457 64.559821 
L 187.593943 61.537872 
L 189.325441 59.077755 
L 190.479769 57.769585 
L 191.634097 56.738144 
L 192.788425 55.990878 
L 193.942753 55.533224 
L 195.097081 55.368526 
L 196.251409 55.49797 
L 197.405737 55.920614 
L 198.560065 56.633374 
L 199.714405 57.631088 
L 200.868733 58.906524 
L 202.023061 60.450527 
L 203.754547 63.245573 
L 205.486045 66.575602 
L 207.217543 70.388974 
L 209.526198 76.124743 
L 211.834854 82.467322 
L 215.297838 92.773604 
L 226.26396 126.277282 
L 229.149786 134.152093 
L 232.035611 141.319808 
L 234.344267 146.491136 
L 236.652923 151.141109 
L 238.961579 155.26822 
L 241.270235 158.885142 
L 243.578891 162.015948 
L 245.887547 164.693319 
L 248.196203 166.955819 
L 250.504859 168.845464 
L 252.813538 170.405586 
L 255.122194 171.679012 
L 257.43085 172.706782 
L 260.316676 173.703881 
L 263.202478 174.443314 
L 266.665474 175.070516 
L 270.705616 175.543757 
L 275.900098 175.887514 
L 282.826089 176.092388 
L 294.946539 176.186509 
L 348.045672 176.2 
L 349.2 176.2 
L 349.2 176.2 
" clip-path="url(#p5eee908ed7)" style="fill: none; stroke: #000000; stroke-linecap: square"/>
   </g>
   <g id="line2d_8">
    <path d="M 43.88 176.099956 
L 52.537466 175.87502 
L 58.309117 175.528288 
L 62.926429 175.039642 
L 66.966577 174.374025 
L 70.429567 173.556229 
L 73.315387 172.647844 
L 76.201207 171.483682 
L 78.509862 170.333503 
L 80.818524 168.958067 
L 83.127186 167.327837 
L 85.435842 165.412925 
L 87.744498 163.183996 
L 90.053154 160.613413 
L 92.36181 157.676458 
L 94.670472 154.352765 
L 96.979128 150.627778 
L 99.287789 146.494281 
L 101.596445 141.95391 
L 104.482265 135.725327 
L 107.368091 128.928562 
L 110.831075 120.135228 
L 115.448393 107.662749 
L 123.528694 85.663542 
L 126.414514 78.430684 
L 128.72317 73.115642 
L 131.031832 68.334496 
L 132.763324 65.158845 
L 134.494816 62.377333 
L 136.226308 60.023807 
L 137.957806 58.127446 
L 139.112134 57.129156 
L 140.266462 56.350359 
L 141.42079 55.795426 
L 142.575118 55.467541 
L 143.729445 55.368533 
L 144.883773 55.499007 
L 146.038101 55.858171 
L 147.192429 56.444015 
L 148.346769 57.25322 
L 149.501097 58.281204 
L 151.232583 60.220419 
L 152.964081 62.614362 
L 154.695579 65.433413 
L 156.427065 68.643245 
L 158.735721 73.464255 
L 161.044377 78.812102 
L 163.930203 86.075491 
L 167.970356 96.940335 
L 177.204992 122.052934 
L 180.667976 130.710986 
L 183.55379 137.369145 
L 186.439616 143.444056 
L 188.748271 147.85557 
L 191.056927 151.858645 
L 193.365595 155.454635 
L 195.674251 158.653231 
L 197.982907 161.471014 
L 200.291563 163.929907 
L 202.600219 166.055688 
L 204.908875 167.876676 
L 207.217543 169.422492 
L 209.526198 170.722994 
L 211.834854 171.807457 
L 214.72068 172.901698 
L 217.606494 173.752582 
L 221.069478 174.515768 
L 225.109632 175.134241 
L 229.726955 175.586031 
L 235.498595 175.904749 
L 243.578891 176.102186 
L 258.007996 176.189209 
L 330.153571 176.2 
L 349.2 176.2 
L 349.2 176.2 
" clip-path="url(#p5eee908ed7)" style="fill: none; stroke: #0000ff; stroke-linecap: square"/>
   </g>
   <g id="patch_3">
    <path d="M 43.88 176.2 
L 43.88 25.16 
" style="fill: none; stroke: #000000; stroke-linejoin: miter; stroke-linecap: square"/>
   </g>
   <g id="patch_4">
    <path d="M 349.2 176.2 
L 349.2 25.16 
" style="fill: none; stroke: #000000; stroke-linejoin: miter; stroke-linecap: square"/>
   </g>
   <g id="patch_5">
    <path d="M 43.88 176.2 
L 349.2 176.2 
" style="fill: none; stroke: #000000; stroke-linejoin: miter; stroke-linecap: square"/>
   </g>
   <g id="patch_6">
    <path d="M 43.88 25.16 
L 349.2 25.16 
" style="fill: none; stroke: #000000; stroke-linejoin: miter; stroke-linecap: square"/>
   </g>
   <g id="matplotlib.axis_1">
    <g id="xtick_1">
     <g id="line2d_9">
      <defs>
       <path id="me52c38e9d6" d="M 0 0 
L 0 -4 
" style="stroke: #000000; stroke-width: 0.5"/>
      </defs>
      <g>
       <use xlink:href="#me52c38e9d6" x="59.260648" y="176.2" style="stroke: #000000; stroke-width: 0.5"/>
      </g>
     </g>
     <g id="line2d_10">
      <defs>
       <path id="m82156f02c1" d="M 0 0 
L 0 4 
" style="stroke: #000000; stroke-width: 0.5"/>
      </defs>
      <g>
       <use xlink:href="#m82156f02c1" x="59.260648" y="25.16" style="stroke: #000000; stroke-width: 0.5"/>
      </g>
     </g>
     <g id="text_1">
      <text style="font-size: 10px; font-family: 'DejaVu Sans', 'Lucida Grande', 'Verdana', 'Geneva', 'Lucid', 'Arial', 'Helvetica', 'Avant Garde', sans-serif; text-anchor: middle" x="59.260648" y="187.797656" transform="rotate(-0 59.260648 187.797656)">−1.0</text>
     </g>
    </g>
    <g id="xtick_2">
     <g id="line2d_11">
      <g>
       <use xlink:href="#me52c38e9d6" x="109.145789" y="176.2" style="stroke: #000000; stroke-width: 0.5"/>
      </g>
     </g>
     <g id="line2d_12">
      <g>
       <use xlink:href="#m82156f02c1" x="109.145789" y="25.16" style="stroke: #000000; stroke-width: 0.5"/>
      </g>
     </g>
     <g id="text_2">
      <text style="font-size: 10px; font-family: 'DejaVu Sans', 'Lucida Grande', 'Verdana', 'Geneva', 'Lucid', 'Arial', 'Helvetica', 'Avant Garde', sans-serif; text-anchor: middle" x="109.145789" y="187.797656" transform="rotate(-0 109.145789 187.797656)">−0.5</text>
     </g>
    </g>
    <g id="xtick_3">
     <g id="line2d_13">
      <g>
       <use xlink:href="#me52c38e9d6" x="159.03093" y="176.2" style="stroke: #000000; stroke-width: 0.5"/>
      </g>
     </g>
     <g id="line2d_14">
      <g>
       <use xlink:href="#m82156f02c1" x="159.03093" y="25.16" style="stroke: #000000; stroke-width: 0.5"/>
      </g>
     </g>
     <g id="text_3">
      <text style="font-size: 10px; font-family: 'DejaVu Sans', 'Lucida Grande', 'Verdana', 'Geneva', 'Lucid', 'Arial', 'Helvetica', 'Avant Garde', sans-serif; text-anchor: middle" x="159.03093" y="187.797656" transform="rotate(-0 159.03093 187.797656)">0.0</text>
     </g>
    </g>
    <g id="xtick_4">
     <g id="line2d_15">
      <g>
       <use xlink:href="#me52c38e9d6" x="208.916071" y="176.2" style="stroke: #000000; stroke-width: 0.5"/>
      </g>
     </g>
     <g id="line2d_16">
      <g>
       <use xlink:href="#m82156f02c1" x="208.916071" y="25.16" style="stroke: #000000; stroke-width: 0.5"/>
      </g>
     </g>
     <g id="text_4">
      <text style="font-size: 10px; font-family: 'DejaVu Sans', 'Lucida Grande', 'Verdana', 'Geneva', 'Lucid', 'Arial', 'Helvetica', 'Avant Garde', sans-serif; text-anchor: middle" x="208.916071" y="187.797656" transform="rotate(-0 208.916071 187.797656)">0.5</text>
     </g>
    </g>
    <g id="xtick_5">
     <g id="line2d_17">
      <g>
       <use xlink:href="#me52c38e9d6" x="258.801213" y="176.2" style="stroke: #000000; stroke-width: 0.5"/>
      </g>
     </g>
     <g id="line2d_18">
      <g>
       <use xlink:href="#m82156f02c1" x="258.801213" y="25.16" style="stroke: #000000; stroke-width: 0.5"/>
      </g>
     </g>
     <g id="text_5">
      <text style="font-size: 10px; font-family: 'DejaVu Sans', 'Lucida Grande', 'Verdana', 'Geneva', 'Lucid', 'Arial', 'Helvetica', 'Avant Garde', sans-serif; text-anchor: middle" x="258.801213" y="187.797656" transform="rotate(-0 258.801213 187.797656)">1.0</text>
     </g>
    </g>
    <g id="xtick_6">
     <g id="line2d_19">
      <g>
       <use xlink:href="#me52c38e9d6" x="308.686354" y="176.2" style="stroke: #000000; stroke-width: 0.5"/>
      </g>
     </g>
     <g id="line2d_20">
      <g>
       <use xlink:href="#m82156f02c1" x="308.686354" y="25.16" style="stroke: #000000; stroke-width: 0.5"/>
      </g>
     </g>
     <g id="text_6">
      <text style="font-size: 10px; font-family: 'DejaVu Sans', 'Lucida Grande', 'Verdana', 'Geneva', 'Lucid', 'Arial', 'Helvetica', 'Avant Garde', sans-serif; text-anchor: middle" x="308.686354" y="187.797656" transform="rotate(-0 308.686354 187.797656)">1.5</text>
     </g>
    </g>
    <g id="text_7">
     <text style="font-size: 10px; font-family: 'DejaVu Sans', 'Lucida Grande', 'Verdana', 'Geneva', 'Lucid', 'Arial', 'Helvetica', 'Avant Garde', sans-serif; text-anchor: middle" x="196.54" y="202.797656" transform="rotate(-0 196.54 202.797656)">x</text>
    </g>
   </g>
   <g id="matplotlib.axis_2">
    <g id="ytick_1">
     <g id="line2d_21">
      <defs>
       <path id="mac1cd08725" d="M 0 0 
L 4 0 
" style="stroke: #000000; stroke-width: 0.5"/>
      </defs>
      <g>
       <use xlink:href="#mac1cd08725" x="43.88" y="176.2" style="stroke: #000000; stroke-width: 0.5"/>
      </g>
     </g>
     <g id="line2d_22">
      <defs>
       <path id="m576f3c178a" d="M 0 0 
L -4 0 
" style="stroke: #000000; stroke-width: 0.5"/>
      </defs>
      <g>
       <use xlink:href="#m576f3c178a" x="349.2" y="176.2" style="stroke: #000000; stroke-width: 0.5"/>
      </g>
     </g>
     <g id="text_8">
      <text style="font-size: 10px; font-family: 'DejaVu Sans', 'Lucida Grande', 'Verdana', 'Geneva', 'Lucid', 'Arial', 'Helvetica', 'Avant Garde', sans-serif; text-anchor: end" x="39.88" y="178.797656" transform="rotate(-0 39.88 178.797656)">0.0</text>
     </g>
    </g>
    <g id="ytick_2">
     <g id="line2d_23">
      <g>
       <use xlink:href="#mac1cd08725" x="43.88" y="152.0336" style="stroke: #000000; stroke-width: 0.5"/>
      </g>
     </g>
     <g id="line2d_24">
      <g>
       <use xlink:href="#m576f3c178a" x="349.2" y="152.0336" style="stroke: #000000; stroke-width: 0.5"/>
      </g>
     </g>
     <g id="text_9">
      <text style="font-size: 10px; font-family: 'DejaVu Sans', 'Lucida Grande', 'Verdana', 'Geneva', 'Lucid', 'Arial', 'Helvetica', 'Avant Garde', sans-serif; text-anchor: end" x="39.88" y="154.631256" transform="rotate(-0 39.88 154.631256)">0.2</text>
     </g>
    </g>
    <g id="ytick_3">
     <g id="line2d_25">
      <g>
       <use xlink:href="#mac1cd08725" x="43.88" y="127.8672" style="stroke: #000000; stroke-width: 0.5"/>
      </g>
     </g>
     <g id="line2d_26">
      <g>
       <use xlink:href="#m576f3c178a" x="349.2" y="127.8672" style="stroke: #000000; stroke-width: 0.5"/>
      </g>
     </g>
     <g id="text_10">
      <text style="font-size: 10px; font-family: 'DejaVu Sans', 'Lucida Grande', 'Verdana', 'Geneva', 'Lucid', 'Arial', 'Helvetica', 'Avant Garde', sans-serif; text-anchor: end" x="39.88" y="130.464856" transform="rotate(-0 39.88 130.464856)">0.4</text>
     </g>
    </g>
    <g id="ytick_4">
     <g id="line2d_27">
      <g>
       <use xlink:href="#mac1cd08725" x="43.88" y="103.7008" style="stroke: #000000; stroke-width: 0.5"/>
      </g>
     </g>
     <g id="line2d_28">
      <g>
       <use xlink:href="#m576f3c178a" x="349.2" y="103.7008" style="stroke: #000000; stroke-width: 0.5"/>
      </g>
     </g>
     <g id="text_11">
      <text style="font-size: 10px; font-family: 'DejaVu Sans', 'Lucida Grande', 'Verdana', 'Geneva', 'Lucid', 'Arial', 'Helvetica', 'Avant Garde', sans-serif; text-anchor: end" x="39.88" y="106.298456" transform="rotate(-0 39.88 106.298456)">0.6</text>
     </g>
    </g>
    <g id="ytick_5">
     <g id="line2d_29">
      <g>
       <use xlink:href="#mac1cd08725" x="43.88" y="79.5344" style="stroke: #000000; stroke-width: 0.5"/>
      </g>
     </g>
     <g id="line2d_30">
      <g>
       <use xlink:href="#m576f3c178a" x="349.2" y="79.5344" style="stroke: #000000; stroke-width: 0.5"/>
      </g>
     </g>
     <g id="text_12">
      <text style="font-size: 10px; font-family: 'DejaVu Sans', 'Lucida Grande', 'Verdana', 'Geneva', 'Lucid', 'Arial', 'Helvetica', 'Avant Garde', sans-serif; text-anchor: end" x="39.88" y="82.132056" transform="rotate(-0 39.88 82.132056)">0.8</text>
     </g>
    </g>
    <g id="ytick_6">
     <g id="line2d_31">
      <g>
       <use xlink:href="#mac1cd08725" x="43.88" y="55.368" style="stroke: #000000; stroke-width: 0.5"/>
      </g>
     </g>
     <g id="line2d_32">
      <g>
       <use xlink:href="#m576f3c178a" x="349.2" y="55.368" style="stroke: #000000; stroke-width: 0.5"/>
      </g>
     </g>
     <g id="text_13">
      <text style="font-size: 10px; font-family: 'DejaVu Sans', 'Lucida Grande', 'Verdana', 'Geneva', 'Lucid', 'Arial', 'Helvetica', 'Avant Garde', sans-serif; text-anchor: end" x="39.88" y="57.965656" transform="rotate(-0 39.88 57.965656)">1.0</text>
     </g>
    </g>
    <g id="ytick_7">
     <g id="line2d_33">
      <g>
       <use xlink:href="#mac1cd08725" x="43.88" y="31.2016" style="stroke: #000000; stroke-width: 0.5"/>
      </g>
     </g>
     <g id="line2d_34">
      <g>
       <use xlink:href="#m576f3c178a" x="349.2" y="31.2016" style="stroke: #000000; stroke-width: 0.5"/>
      </g>
     </g>
     <g id="text_14">
      <text style="font-size: 10px; font-family: 'DejaVu Sans', 'Lucida Grande', 'Verdana', 'Geneva', 'Lucid', 'Arial', 'Helvetica', 'Avant Garde', sans-serif; text-anchor: end" x="39.88" y="33.799256" transform="rotate(-0 39.88 33.799256)">1.2</text>
     </g>
    </g>
    <g id="text_15">
     <text style="font-size: 10px; font-family: 'DejaVu Sans', 'Lucida Grande', 'Verdana', 'Geneva', 'Lucid', 'Arial', 'Helvetica', 'Avant Garde', sans-serif; text-anchor: middle" x="13.976875" y="98.277656" transform="rotate(-0 13.976875 98.277656)">y</text>
    </g>
   </g>
   <g id="text_16">
    <text style="font-size: 12px; font-family: 'DejaVu Sans', 'Lucida Grande', 'Verdana', 'Geneva', 'Lucid', 'Arial', 'Helvetica', 'Avant Garde', sans-serif; text-anchor: middle" x="196.54" y="20.16" transform="rotate(-0 196.54 20.16)">Trained sinusoidal model</text>
   </g>
  </g>
 </g>
 <defs>
  <clipPath id="p5eee908ed7">
   <rect x="43.88" y="25.16" width="305.32" height="151.04"/>
  </clipPath>
 </defs>
</svg>
